<?xml version="1.0" encoding="utf-8"?>
<!-- Generator: Adobe Illustrator 16.0.0, SVG Export Plug-In . SVG Version: 6.00 Build 0)  -->
<!DOCTYPE svg PUBLIC "-//W3C//DTD SVG 1.1//EN" "http://www.w3.org/Graphics/SVG/1.1/DTD/svg11.dtd">
<svg version="1.1" id="Layer_1" xmlns="http://www.w3.org/2000/svg" xmlns:xlink="http://www.w3.org/1999/xlink" x="0px" y="0px"
	 width="480px" height="480px" viewBox="0 0 480 480" enable-background="new 0 0 480 480" xml:space="preserve">
<g>
	<path d="M84.822,79.591l126.708,169.042c7.197,9.609,17.575,15.124,28.475,15.124c10.89,0,21.268-5.515,28.483-15.124
		L392.993,82.526c1.027-1.385,2.245-2.426,3.533-3.278C391.253,76.526,385.426,75,379.306,75H100.705
		c-5.857,0-11.443,1.384-16.536,3.881C84.38,79.13,84.621,79.331,84.822,79.591z"/>
	<path d="M415.71,98.716c-0.554,1.716-1.338,3.373-2.435,4.828L288.761,269.65c-12.34,16.461-30.105,25.894-48.755,25.894
		c-18.65,0-36.426-9.433-48.755-25.894L64.532,100.609c-0.252-0.343-0.434-0.722-0.655-1.089
		c-3.916,7.633-6.209,16.521-6.209,26.083v228.805c0,27.941,19.274,50.592,43.037,50.592h278.601
		c23.763,0,43.027-22.65,43.027-50.592V125.603C422.333,115.71,419.887,106.514,415.71,98.716z"/>
</g>
</svg>
