<?xml version="1.0" encoding="UTF-8"?>
<svg xmlns="http://www.w3.org/2000/svg" xmlns:xlink="http://www.w3.org/1999/xlink" viewBox="0 0 480 480" width="480px" height="480px">
<g id="surface50424069">
<path style=" stroke:none;fill-rule:nonzero;fill:rgb(100%,100%,100%);fill-opacity:1;" d="M 240 40 C 234.65625 40 229.539062 42.140625 225.78125 45.9375 L 24.0625 221.953125 C 21.507812 223.839844 20 226.824219 20 230 C 20 235.523438 24.476562 240 30 240 L 80 240 L 80 400 C 80 411.039062 88.960938 420 100 420 L 180 420 C 191.039062 420 200 411.039062 200 400 L 200 280 L 280 280 L 280 400 C 280 411.039062 288.960938 420 300 420 L 380 420 C 391.039062 420 400 411.039062 400 400 L 400 240 L 450 240 C 455.523438 240 460 235.523438 460 230 C 460 226.824219 458.492188 223.839844 455.9375 221.953125 L 254.335938 46.054688 C 254.296875 46.015625 254.257812 45.976562 254.21875 45.9375 C 250.460938 42.140625 245.34375 40 240 40 Z M 240 40 "/>
</g>
</svg>
