<?xml version="1.0" encoding="utf-8"?>
<!-- Generator: Adobe Illustrator 16.0.0, SVG Export Plug-In . SVG Version: 6.00 Build 0)  -->
<!DOCTYPE svg PUBLIC "-//W3C//DTD SVG 1.1//EN" "http://www.w3.org/Graphics/SVG/1.1/DTD/svg11.dtd">
<svg version="1.1" id="Layer_1" xmlns="http://www.w3.org/2000/svg" xmlns:xlink="http://www.w3.org/1999/xlink" x="0px" y="0px"
	 width="2400px" height="2400px" viewBox="0 0 2400 2400" enable-background="new 0 0 2400 2400" xml:space="preserve">
<g>
	<path d="M345.866,498.089l697.432,739.687c39.614,42.048,96.734,66.181,156.732,66.181c59.939,0,117.061-24.133,156.782-66.181
		l685.292-726.845c5.655-6.058,12.361-10.613,19.451-14.342c-29.029-11.91-61.102-18.589-94.787-18.589H433.287
		c-32.238,0-62.986,6.056-91.017,16.982C343.431,496.071,344.759,496.95,345.866,498.089z"/>
	<path d="M2167.144,581.775c-3.045,7.507-7.364,14.758-13.401,21.126l-685.355,726.842
		c-67.918,72.031-165.704,113.305-268.357,113.305c-102.656,0-200.497-41.273-268.358-113.305L234.183,590.058
		c-1.39-1.5-2.387-3.158-3.603-4.765c-21.555,33.402-34.181,72.292-34.181,114.135v1001.195
		c0,122.264,106.093,221.377,236.888,221.377h1533.48c130.797,0,236.833-99.113,236.833-221.377V699.428
		C2203.601,656.137,2190.135,615.899,2167.144,581.775z"/>
</g>
</svg>
