<?xml version="1.0" encoding="utf-8"?>
<!-- Generator: Adobe Illustrator 16.0.0, SVG Export Plug-In . SVG Version: 6.00 Build 0)  -->
<!DOCTYPE svg PUBLIC "-//W3C//DTD SVG 1.1//EN" "http://www.w3.org/Graphics/SVG/1.1/DTD/svg11.dtd">
<svg version="1.1" id="Layer_1" xmlns="http://www.w3.org/2000/svg" xmlns:xlink="http://www.w3.org/1999/xlink" x="0px" y="0px"
	 width="480px" height="480px" viewBox="0 0 480 480" enable-background="new 0 0 480 480" xml:space="preserve">
<g id="surface50424069">
	<path fill="#FF9100" d="M240,40c-5.344,0-10.461,2.141-14.219,5.938L24.063,221.953C21.508,223.84,20,226.824,20,230
		c0,5.523,4.477,10,10,10h50v160c0,11.039,8.961,20,20,20h80c11.039,0,20-8.961,20-20V280h80v120c0,11.039,8.961,20,20,20h80
		c11.039,0,20-8.961,20-20V240h50c5.523,0,10-4.477,10-10c0-3.176-1.508-6.16-4.063-8.047L254.336,46.055
		c-0.039-0.039-0.078-0.078-0.117-0.117C250.461,42.141,245.344,40,240,40z"/>
</g>
</svg>
