<?xml version="1.0" encoding="utf-8"?>
<!-- Generator: Adobe Illustrator 16.0.0, SVG Export Plug-In . SVG Version: 6.00 Build 0)  -->
<!DOCTYPE svg PUBLIC "-//W3C//DTD SVG 1.1//EN" "http://www.w3.org/Graphics/SVG/1.1/DTD/svg11.dtd">
<svg version="1.1" id="Layer_1" xmlns="http://www.w3.org/2000/svg" xmlns:xlink="http://www.w3.org/1999/xlink" x="0px" y="0px"
	 width="400px" height="400px" viewBox="0 0 400 400" enable-background="new 0 0 400 400" xml:space="preserve">
<g>
	<path fill="#FFFFFF" d="M200,277.522c-65.723,0-119.002,16.225-119.002,36.238C80.998,333.775,134.277,350,200,350
		c65.723,0,119.002-16.225,119.002-36.239S265.723,277.522,200,277.522z M259.521,324.131c-15.835,4.822-36.973,7.479-59.521,7.479
		c-22.547,0-43.685-2.656-59.521-7.479c-16.246-4.947-22.01-10.753-22.01-14.222s5.765-9.274,22.01-14.222
		c15.836-4.822,36.974-7.478,59.521-7.478h0.009c22.543,0,43.68,2.655,59.514,7.478c16.244,4.947,22.008,10.753,22.008,14.222
		S275.766,319.184,259.521,324.131z"/>
	<path fill="#FFFFFF" d="M200.371,50c-51.219,0-92.743,41.521-92.743,92.743c0,8.801,1.253,17.306,3.545,25.374
		c1.41,4.967,2.953,9.901,5.388,14.36c19.019,34.819,83.81,134.761,83.81,134.761s64.794-99.943,83.813-134.762
		c2.434-4.459,3.976-9.392,5.388-14.358c2.29-8.068,3.544-16.572,3.544-25.374C293.115,91.521,251.593,50,200.371,50z
		 M200.371,183.579c-12.934,0-24.475-6.05-31.963-15.462c-5.548-6.974-8.875-15.791-8.875-25.374
		c0-22.519,18.319-40.837,40.837-40.837c22.519,0,40.836,18.318,40.836,40.837c0,9.583-3.326,18.4-8.872,25.374
		C224.846,177.529,213.305,183.579,200.371,183.579z"/>
</g>
</svg>
